HIERARCHY
ROOT Hips
{
	OFFSET 0.00000 0.00000 0.00000
	CHANNELS 6 Xposition Yposition Zposition Yrotation Zrotation Xrotation 
	JOINT Lumbar
	{
		OFFSET 0 0 0
		CHANNELS 3 Zrotation Xrotation Yrotation
		JOINT Neck
		{
			OFFSET 0.00 0.2701 0.00
			CHANNELS 3 Zrotation Xrotation Yrotation
			End Site
			{
				OFFSET 0.00 0.1379 0.00
			}
		}
		JOINT RightShoulder
		{
			OFFSET 0.0119 0.2289 0.1181
			CHANNELS 3 Zrotation Xrotation Yrotation
			JOINT RightElbow
			{
				OFFSET 0.00 -0.1475 0.00
				CHANNELS 2 Zrotation Yrotation
				JOINT RightWrist
				{
					OFFSET 0.00 -0.1605 0.00
					CHANNELS 2 Zrotation Xrotation
					End Site
					{
						OFFSET 0.0040 -0.1068 0.0006
					}
				}
			}
		}
		JOINT LeftShoulder
		{
			OFFSET 0.0119 0.2289 -0.1181
			CHANNELS 3 Zrotation Xrotation Yrotation
			JOINT LeftElbow
			{
				OFFSET 0.00 -0.1475 0.00
				CHANNELS 2 Zrotation Yrotation
				JOINT LeftWrist
				{
					OFFSET 0.00 -0.1605 0.00
					CHANNELS 2 Zrotation Xrotation
					End Site
					{
						OFFSET 0.0040 -0.1068 -0.0006
					}
				}
			}
		}
	}
	JOINT RightHip
	{
		OFFSET 0.0316 -0.0424 0.0458
		CHANNELS 3 Zrotation Xrotation Yrotation
		JOINT RightKnee
		{
			OFFSET 0.00 -0.2438 0.00
			CHANNELS 1 Zrotation
			JOINT RightAnkle
			{
				OFFSET 0.00 -0.2449 0.00
				CHANNELS 3 Zrotation Xrotation Yrotation
				End Site
				{
					OFFSET 0.1237 -0.0542 0.0051
				}
			}
		}
	}
	JOINT LeftHip
	{
		OFFSET 0.0316 -0.0424 -0.0458
		CHANNELS 3 Zrotation Xrotation Yrotation
		JOINT LeftKnee
		{
			OFFSET 0.00 -0.2438 0.00
			CHANNELS 1 Zrotation
			JOINT LeftAnkle
			{
				OFFSET 0.00 -0.2449 0.00
				CHANNELS 3 Zrotation Xrotation Yrotation
				End Site
				{
					OFFSET 0.1237 -0.0542 -0.0051
				}
			}
		}
	}
}
MOTION
Frames: 28
Frame Time: 0.02
-0.62028 0.54836 0.08752 172.97341 0 0.86568 -56.06391 5.14835 -36.35094 -73.7968 -43.31502 33.8465 144.86762 -24.25825 59.00998 5.32863 78.90043 -1.16724 1.52084 137.41396 -11.35787 -63.71407 17.70022 -87.6612 2.91143 -0.98399 15.99254 -12.11582 3.18628 -33.12543 9.3726 3.14082 8.8669 21.35224 -2.87383 7.51494 -30.77783 6.3381 0.55882 -3.0637
-0.61969 0.54889 0.08715 173.0192 0 0.70926 -56.06391 5.08195 -37.17539 -73.79686 -43.31504 31.43639 143.91818 -21.81849 57.46666 5.32858 78.97373 -1.11224 1.52227 137.23491 -11.05198 -59.05392 15.50879 -87.3449 2.22724 -1.08039 15.87436 -11.88746 3.23272 -32.80948 9.07726 2.94909 8.69584 21.41124 -2.70956 7.41677 -30.75659 6.12141 0.64222 -3.02973
-0.61876 0.54944 0.08677 173.0709 0 0.51299 -56.06391 4.9693 -38.20979 -73.79668 -43.31495 28.43358 142.79488 -18.76344 55.41992 5.32863 79.11449 -1.05314 1.52883 137.06397 -10.62069 -53.1552 12.80734 -86.90474 1.388 -1.20329 15.78345 -11.5808 3.3845 -32.48568 8.73553 2.6917 8.41714 21.52085 -2.50342 7.29212 -30.76825 5.8788 0.74346 -2.99216
-0.618 0.54998 0.08639 173.11602 0 0.33354 -56.06391 4.87268 -39.1417 -73.79694 -43.31508 25.72841 141.77524 -16.00924 53.64838 5.32856 79.22903 -0.99596 1.52952 136.89555 -10.19314 -48.03366 10.41739 -86.50087 0.64195 -1.30791 15.67557 -11.30663 3.49301 -32.16004 8.41426 2.4616 8.18253 21.59906 -2.31533 7.17733 -30.75586 5.65362 0.83517 -2.95401
-0.61714 0.55051 0.08602 173.1785 0 0.1589 -56.06391 4.79703 -40.10806 -73.79686 -43.31502 22.88964 140.64817 -13.15253 51.67659 5.32845 79.3234 -0.93826 1.54531 136.70177 -9.98033 -42.01573 7.68766 -86.17663 -0.20129 -1.43895 15.58488 -11.04521 3.58128 -31.85442 8.09458 2.24097 7.96744 21.71144 -2.13128 7.07172 -30.77961 5.40381 0.93246 -2.92581
-0.61643 0.55107 0.08563 173.2061 0 -0.03479 -56.06391 4.6674 -41.04815 -73.79609 -43.31466 20.20086 139.70498 -10.37509 50.00713 5.32888 79.47547 -0.88082 1.53053 136.56115 -9.3028 -37.55767 5.54422 -85.66322 -0.87908 -1.52117 15.46555 -10.73952 3.73489 -31.50597 7.76063 1.98664 7.68831 21.76528 -1.92921 6.94014 -30.73682 5.19886 1.02278 -2.87529
-0.61623 0.55172 0.08516 173.13302 0 -0.2738 -56.06392 4.39202 -41.89573 -73.79851 -43.31591 17.98654 139.30479 -7.88035 49.25594 5.32801 79.78107 -0.82495 1.43384 136.57469 -7.26536 -37.83353 5.16533 -84.6048 -1.05425 -1.46281 15.2621 -10.32118 4.07002 -31.04549 7.40299 1.64133 7.23566 21.64357 -1.68376 6.75036 -30.5017 5.13147 1.08621 -2.77049
-0.61621 0.55239 0.08466 173.02492 0 -0.53011 -56.06392 4.06532 -42.70288 -73.7948 -43.31414 15.96166 139.09319 -5.50263 48.83318 5.32877 80.14051 -0.76973 1.30572 136.63547 -4.78311 -39.69995 5.39182 -83.37012 -1.05882 -1.35441 15.02892 -9.86266 4.46284 -30.54193 7.03208 1.26693 6.72639 21.46163 -1.42224 6.53426 -30.19899 5.10912 1.14257 -2.64224
-0.6161 0.55306 0.08417 172.9347 0 -0.77684 -56.06392 3.76728 -43.50854 -73.7963 -43.31506 13.90474 138.80597 -3.13002 48.28711 5.32991 80.4689 -0.71408 1.18937 136.67411 -2.57683 -40.75677 5.32703 -82.25088 -1.14624 -1.26829 14.80856 -9.42879 4.81199 -30.05562 6.66448 0.91512 6.25796 21.3085 -1.17066 6.32549 -29.92782 5.06136 1.20442 -2.52036
-0.616 0.55371 0.0837 172.83677 0 -1.03221 -56.06392 3.44507 -44.40813 -73.806 -43.31975 11.59324 138.4877 -0.49337 47.61687 5.32401 80.82834 -0.65807 1.0831 136.73367 -0.06072 -42.13399 5.30876 -80.97822 -1.21632 -1.18445 14.59194 -8.9654 5.23806 -29.57843 6.30633 0.5217 5.72199 21.15119 -0.90678 6.13476 -29.65399 5.03287 1.25755 -2.41607
-0.61593 0.55441 0.08318 172.74605 0 -1.27318 -56.06392 3.16164 -45.09635 -73.77402 -43.30415 9.87171 138.25903 1.56201 47.28611 5.33606 81.13383 -0.60398 0.9492 136.73842 1.92185 -43.24101 5.34885 -79.98475 -1.28039 -1.08434 14.36022 -8.55473 5.51672 -29.07261 5.92646 0.20857 5.31465 20.98746 -0.66488 5.90128 -29.36961 4.97613 1.32658 -2.2701
-0.61591 0.55523 0.08255 172.68775 0 -1.46968 -56.06392 2.99813 -45.23132 -73.82641 -43.3304 9.67617 138.41883 1.99001 47.84608 5.37472 81.28709 -0.54756 0.73914 136.76923 2.24705 -43.19232 5.36384 -79.80767 -1.36534 -0.94505 14.09322 -8.30198 5.36988 -28.49435 5.48606 0.12754 5.27669 20.82195 -0.49117 5.5502 -29.06904 4.82331 1.44411 -2.0107
-0.61594 0.55609 0.08187 172.63723 0 -1.65091 -56.06392 2.87571 -45.14513 -73.8001 -43.31602 10.08086 138.62596 1.8377 48.73199 5.43716 81.38195 -0.49499 0.50399 136.70642 2.02823 -42.82769 5.42647 -79.91816 -1.4502 -0.79201 13.81204 -8.10365 5.07303 -27.8896 5.02539 0.12806 5.37045 20.65156 -0.33977 5.15833 -28.76068 4.64203 1.57722 -1.71102
-0.61596 0.55694 0.0812 172.58046 0 -1.83932 -56.06392 2.73435 -45.15197 -73.67996 -43.25931 10.25169 138.69243 1.98862 49.44996 5.50152 81.49678 -0.44487 0.28492 136.56444 2.11367 -42.6263 5.49482 -79.89564 -1.53705 -0.6496 13.5378 -7.87909 4.84712 -27.29955 4.57654 0.08938 5.40437 20.48242 -0.17597 4.78913 -28.45815 4.47845 1.70126 -1.43234
-0.61592 0.5578 0.08056 172.53362 0 -2.02762 -56.06392 2.59179 -45.20942 -74.10668 -43.46811 10.26673 139.2777 1.99266 50.26532 5.50577 81.64151 -0.37484 0.04394 136.94422 1.99499 -42.3932 5.4681 -79.8753 -1.60956 -0.48769 13.26057 -7.65919 4.61142 -26.69658 4.11551 0.05857 5.43672 20.3154 -0.02085 4.40131 -28.14375 4.29602 1.83359 -1.14112
-0.61601 0.55863 0.07986 172.46879 0 -2.21195 -56.06392 2.46283 -45.08395 -73.37586 -43.10303 10.74354 138.77953 2.13665 50.94773 5.64892 81.70906 -0.34994 -0.1556 136.20658 2.14007 -42.13483 5.64329 -79.92278 -1.71446 -0.36289 12.98642 -7.44331 4.35997 -26.11501 3.67607 0.03126 5.50367 20.14345 0.14649 4.04327 -27.85292 4.14586 1.95227 -0.86718
-0.61645 0.55937 0.07902 172.34943 0 -2.39173 -56.06394 2.35609 -44.73002 -69.46499 -41.26277 12.36464 135.37606 3.07142 51.21135 6.10297 81.57391 -0.42602 -0.24569 132.47 3.38048 -41.83757 6.36338 -80.06831 -1.90875 -0.35189 12.7256 -7.22324 4.09901 -25.59715 3.29379 -0.00723 5.64051 19.96042 0.35589 3.77485 -27.63041 4.08842 2.03096 -0.64756
-0.61702 0.56009 0.07813 172.2126 0 -2.56747 -56.06388 2.26301 -44.16157 -64.39208 -38.83058 14.41948 130.86165 4.12519 51.32359 6.70988 81.35936 -0.55217 -0.29069 127.59902 4.86636 -41.52387 7.2852 -80.27317 -2.13803 -0.37763 12.46808 -7.0059 3.82746 -25.1021 2.93527 -0.0447 5.80668 19.77254 0.57776 3.53852 -27.43175 4.06471 2.09508 -0.44764
-0.61754 0.56081 0.07727 172.0856 0 -2.74313 -56.06397 2.16724 -43.54141 -59.85361 -36.6006 16.27241 126.79023 4.94458 51.48451 7.28881 81.18872 -0.66961 -0.34926 123.20653 6.0751 -41.24362 8.10855 -80.46845 -2.35021 -0.38138 12.20856 -6.78889 3.56244 -24.59832 2.57102 -0.08194 5.95546 19.58641 0.79186 3.28925 -27.2219 4.02766 2.16495 -0.24071
-0.61804 0.56156 0.07639 171.95005 0 -2.92618 -56.06394 2.05743 -43.52986 -55.28722 -34.63977 18.19282 122.98056 6.47778 51.7399 7.68757 81.00017 -0.7257 -0.43912 118.971 7.93475 -40.85467 8.95041 -80.61425 -2.56099 -0.40634 11.95144 -6.56726 3.28554 -24.08752 2.18523 -0.11934 6.12608 19.4024 1.01386 3.03131 -27.01409 3.98172 2.23922 -0.02335
-0.6186 0.56224 0.07553 171.8291 0 -3.09328 -56.06368 1.98031 -42.21962 -50.50202 -31.99266 20.03499 118.36286 6.59403 51.7608 8.50493 80.80931 -0.92417 -0.45129 114.13559 8.54093 -40.67832 9.81624 -80.85592 -2.79098 -0.39684 11.6893 -6.35503 3.03208 -23.59604 1.84948 -0.15715 6.25629 19.21236 1.22291 2.79997 -26.80668 3.96207 2.30047 0.16605
-0.61927 0.56268 0.07469 171.74335 0 -3.21525 -56.06448 1.98337 -37.233 -45.42198 -27.47343 21.84165 111.77763 2.47423 51.14848 10.37502 80.82126 -1.47818 -0.27275 107.97003 5.30506 -41.21465 10.56257 -81.50091 -2.99483 -0.27673 11.4214 -6.16945 2.85343 -23.1624 1.65291 -0.19721 6.26857 19.01162 1.39102 2.63148 -26.60425 4.01202 2.33078 0.29207
-0.62 0.56305 0.07386 171.67424 0 -3.32156 -56.06324 2.01957 -30.97691 -40.16308 -22.30826 23.50416 104.42418 -3.02112 50.30878 12.671 80.80243 -2.17717 -0.01537 101.23735 0.85822 -41.94686 11.34811 -82.21294 -3.22797 -0.12218 11.14704 -5.99285 2.69846 -22.74604 1.50497 -0.23794 6.23842 18.80411 1.54605 2.48958 -26.39968 4.08644 2.34809 0.38894
-0.62071 0.56346 0.07303 171.60407 0 -3.4367 -56.06372 2.04524 -25.39375 -34.96305 -17.51727 25.03385 97.42061 -7.68659 49.58535 14.81789 80.6685 -2.82802 0.21485 94.72503 -2.8166 -42.50773 12.20876 -82.78915 -3.49667 0.01252 10.86949 -5.81077 2.52799 -22.31484 1.33007 -0.27821 6.22636 18.59664 1.70874 2.33731 -26.18968 4.14627 2.37044 0.49286
-0.6214 0.56383 0.07221 171.50729 0 -3.54525 -56.06697 2.05369 -19.38799 -29.79443 -12.35976 27.39119 90.35293 -13.19908 48.79884 16.79175 81.06047 -3.41097 0.41133 88.30581 -7.40433 -43.40457 12.69689 -83.80167 -3.5687 0.16455 10.61668 -5.63411 2.37549 -21.91243 1.17548 -0.3191 6.22009 18.40189 1.86514 2.17813 -26.0073 4.22178 2.39623 0.62156
-0.62215 0.56427 0.07135 171.46831 0 -3.66286 -56.05628 2.10393 -13.97588 -24.56144 -7.82682 28.01627 83.27865 -17.29259 48.09589 19.21347 80.37123 -4.16249 0.69458 81.60419 -10.3999 -43.66198 13.9516 -83.934 -4.04628 0.28806 10.3123 -5.44904 2.19331 -21.45576 0.99115 -0.3588 6.19169 18.17902 2.03071 2.04021 -25.76685 4.27018 2.41162 0.69291
-0.62308 0.56493 0.07039 171.60053 0 -3.81811 -56.07371 2.27649 -10.41169 -18.95646 -5.12141 23.6165 76.14052 -16.98267 47.64313 22.86768 76.52691 -5.40134 1.21216 73.99682 -8.54163 -41.98799 17.45082 -81.50263 -5.7278 0.33408 9.85411 -5.23148 1.90677 -20.82904 0.70142 -0.39587 6.10869 17.88098 2.2306 1.9459 -25.36448 4.23615 2.40454 0.60516
-0.62408 0.56566 0.06938 171.78757 0 -3.98143 -56.06509 2.48719 -7.50874 -13.34263 -3.08005 17.52661 69.07112 -15.22482 47.28965 26.93859 71.628 -6.79422 1.81155 66.17931 -5.0699 -39.68493 21.69379 -78.20468 -7.79963 0.34879 9.34674 -5.00638 1.59268 -20.15024 0.38217 -0.43156 6.00536 17.55489 2.43904 1.87335 -24.90429 4.17426 2.38708 0.46235
